<svg width="36" height="36" viewBox="0 0 36 36" fill="none" xmlns="http://www.w3.org/2000/svg">
<path d="M2 18C2 9.16344 9.16344 2 18 2V2C26.8366 2 34 9.16344 34 18V34H18C9.16344 34 2 26.8366 2 18V18Z" fill="#86E8B5"/>
<path d="M10.5194 15.5147C11.7219 15.5147 12.6966 14.54 12.6966 13.3376C12.6966 12.1351 11.7219 11.1604 10.5194 11.1604C9.31703 11.1604 8.34229 12.1351 8.34229 13.3376C8.34229 14.54 9.31703 15.5147 10.5194 15.5147Z" fill="#14A2BA"/>
<path d="M18.1584 24.712C14.9561 24.712 12.3611 22.1162 12.3611 18.9147H8.02905C8.02905 24.5088 12.5642 29.044 18.1584 29.044C20.9558 29.044 23.4878 27.9104 25.3209 26.0772L22.258 23.0143C21.209 24.0632 19.7591 24.712 18.1584 24.712Z" fill="#14A2BA"/>
</svg>
